<?xml version="1.0" encoding="utf-8"?>
<!-- Generator: Adobe Illustrator 26.0.3, SVG Export Plug-In . SVG Version: 6.00 Build 0)  -->
<svg version="1.1" id="Слой_1" xmlns="http://www.w3.org/2000/svg" xmlns:xlink="http://www.w3.org/1999/xlink" x="0px" y="0px"
	 viewBox="0 0 16 16" style="enable-background:new 0 0 16 16;" xml:space="preserve">
<style type="text/css">
	.st0{fill:#FFFFFF;}
</style>
<path class="st0" d="M14,0h-2.7c-1.1,0-2.2,0.4-3,1.2L2.6,7c-0.5,0.5-0.5,1.4,0,2v0L2,9.6L1.7,9.3c-0.4-0.4-1-0.4-1.4,0
	c-0.4,0.4-0.4,1,0,1.4l1,1l3,3l1,1c0.4,0.4,1,0.4,1.4,0c0.4-0.4,0.4-1,0-1.4L6.4,14L7,13.4c0.6,0.6,1.4,0.6,2,0l5.7-5.7
	c0.8-0.8,1.2-1.9,1.2-3V2C16,0.9,15.1,0,14,0z"/>
</svg>
