<?xml version="1.0" encoding="utf-8"?>
<!-- Generator: Adobe Illustrator 26.0.3, SVG Export Plug-In . SVG Version: 6.00 Build 0)  -->
<svg version="1.1" id="Слой_1" xmlns="http://www.w3.org/2000/svg" xmlns:xlink="http://www.w3.org/1999/xlink" x="0px" y="0px"
	 viewBox="0 0 16 16" style="enable-background:new 0 0 16 16;" xml:space="preserve">
<style type="text/css">
	.st0{fill:#FFFFFF;}
</style>
<path class="st0" d="M12.5,4c0,1.4-0.8,2.6-2,3.3V8c0,0.6-0.4,1-1,1h-3c-0.6,0-1-0.4-1-1V7.3c-1.2-0.7-2-1.9-2-3.3c0-2.2,2-4,4.5-4
	S12.5,1.8,12.5,4z M6.3,5.5c0.6,0,1-0.4,1-1s-0.4-1-1-1s-1,0.4-1,1S5.7,5.5,6.3,5.5z M10.7,4.5c0-0.6-0.4-1-1-1s-1,0.4-1,1
	s0.4,1,1,1S10.7,5.1,10.7,4.5z M1.1,8.6c0.2-0.5,0.8-0.7,1.3-0.5L8,10.9l5.6-2.8c0.5-0.2,1.1,0,1.3,0.5s0,1.1-0.5,1.3L10.2,12
	l4.2,2.1c0.5,0.2,0.7,0.8,0.5,1.3s-0.8,0.7-1.3,0.5l0,0L8,13.1l-5.6,2.8c-0.5,0.2-1.1,0-1.3-0.5s0-1.1,0.5-1.3L5.8,12L1.6,9.9
	C1.1,9.7,0.9,9.1,1.1,8.6z"/>
</svg>
