<?xml version="1.0" encoding="utf-8"?>
<!-- Generator: Adobe Illustrator 26.0.3, SVG Export Plug-In . SVG Version: 6.00 Build 0)  -->
<svg version="1.1" id="Слой_1" xmlns="http://www.w3.org/2000/svg" xmlns:xlink="http://www.w3.org/1999/xlink" x="0px" y="0px"
	 viewBox="0 0 16 16" style="enable-background:new 0 0 16 16;" xml:space="preserve">
<style type="text/css">
	.st0{fill:#FFFFFF;}
</style>
<path class="st0" d="M1,2c0-1.1,0.9-2,2-2h5c1.1,0,2,0.9,2,2v6h0.2c1.5,0,2.8,1.2,2.8,2.8v1c0,0.4,0.3,0.8,0.8,0.8s0.8-0.3,0.8-0.8
	V6.9C13.6,6.7,13,5.9,13,5V3l-1-1c-0.3-0.3-0.3-0.7,0-1s0.7-0.3,1,0l2.4,2.4C15.8,3.8,16,4.3,16,4.8v6.9c0,1.2-1,2.2-2.2,2.2
	s-2.2-1-2.2-2.2v-1c0-0.7-0.6-1.2-1.2-1.2H10V14c0.6,0,1,0.4,1,1s-0.4,1-1,1H1c-0.6,0-1-0.4-1-1s0.4-1,1-1V2z M3,2.5v3
	C3,5.8,3.2,6,3.5,6h4C7.8,6,8,5.8,8,5.5v-3C8,2.2,7.8,2,7.5,2h-4C3.2,2,3,2.2,3,2.5z"/>
</svg>
