<?xml version="1.0" encoding="utf-8"?>
<!-- Generator: Adobe Illustrator 26.0.3, SVG Export Plug-In . SVG Version: 6.00 Build 0)  -->
<svg version="1.1" id="Слой_1" xmlns="http://www.w3.org/2000/svg" xmlns:xlink="http://www.w3.org/1999/xlink" x="0px" y="0px"
	 viewBox="0 0 20 16" style="enable-background:new 0 0 20 16;" xml:space="preserve">
<style type="text/css">
	.st0{fill:#FFFFFF;}
</style>
<path class="st0" d="M0,7.5C0,5,2,3,4.6,3c1.2,0,2.3,0.5,3.2,1.3L10,6.6l2.2-2.2c1.8-1.8,4.7-1.7,6.5,0.1C19.5,5.2,20,6.3,20,7.5
	v0.9c0,2.5-2,4.6-4.5,4.6c-1.2,0-2.4-0.4-3.2-1.4L10,9.4l-2.2,2.2c-1.8,1.8-4.7,1.7-6.4-0.1C0.5,10.8,0,9.6,0,8.4V7.5z M8.6,8
	L6.3,5.8c-1-1-2.6-0.9-3.6,0C2.2,6.2,2,6.8,2,7.5v0.9C2,9.9,3.1,11,4.5,11c0.7,0,1.3-0.2,1.8-0.8L8.6,8z M11.4,8l2.2,2.2
	c1,1,2.6,1,3.6,0.1C17.8,9.8,18,9.2,18,8.5v-1c0-1.4-1.1-2.6-2.5-2.6c-0.7,0-1.4,0.2-1.9,0.8L11.4,8z"/>
</svg>
