<?xml version="1.0" encoding="utf-8"?>
<!-- Generator: Adobe Illustrator 26.0.3, SVG Export Plug-In . SVG Version: 6.00 Build 0)  -->
<svg version="1.1" id="Слой_1" xmlns="http://www.w3.org/2000/svg" xmlns:xlink="http://www.w3.org/1999/xlink" x="0px" y="0px"
	 viewBox="0 0 16 16" style="enable-background:new 0 0 16 16;" xml:space="preserve">
<style type="text/css">
	.st0{fill:#FFFFFF;}
</style>
<path class="st0" d="M4.2,4.2c2.1-2.1,5.4-2.1,7.5,0l-1.4,1.4c-0.3,0.3-0.3,0.8,0,1.1c0.2,0.2,0.4,0.2,0.6,0.2h4.3
	c0.4,0,0.8-0.4,0.8-0.8V1.9c0-0.4-0.4-0.8-0.8-0.8c-0.2,0-0.4,0.1-0.6,0.2l-1.4,1.4C10.3-0.2,5.6-0.2,2.7,2.8C1.9,3.6,1.3,4.5,1,5.5
	C0.8,6.1,1.1,6.7,1.7,6.8C2.2,7,2.8,6.7,3,6.2C3.2,5.5,3.6,4.8,4.2,4.2z M0,9.9v4.3c0,0.4,0.4,0.8,0.8,0.8c0.2,0,0.4-0.1,0.6-0.2
	l1.4-1.4c2.9,2.9,7.7,2.9,10.6-0.1c0.8-0.8,1.3-1.7,1.7-2.7c0.2-0.6-0.1-1.2-0.7-1.3C13.8,9,13.2,9.3,13,9.8c-1,2.8-4,4.2-6.8,3.3
	c-0.7-0.3-1.4-0.7-2-1.2l1.4-1.4c0.3-0.3,0.3-0.8,0-1.1C5.5,9.2,5.3,9.1,5.1,9.1H0.8C0.4,9.1,0,9.4,0,9.9z"/>
</svg>
